<svg width="18" height="19" viewBox="0 0 18 19" fill="none" xmlns="http://www.w3.org/2000/svg">
<path d="M1.125 15.9766C1.125 15.9766 0 15.9766 0 14.8516C0 13.7266 1.125 10.3516 6.75 10.3516C12.375 10.3516 13.5 13.7266 13.5 14.8516C13.5 15.9766 12.375 15.9766 12.375 15.9766H1.125ZM6.75 9.22656C7.64511 9.22656 8.50355 8.87098 9.13649 8.23805C9.76942 7.60511 10.125 6.74667 10.125 5.85156C10.125 4.95646 9.76942 4.09801 9.13649 3.46508C8.50355 2.83214 7.64511 2.47656 6.75 2.47656C5.85489 2.47656 4.99645 2.83214 4.36351 3.46508C3.73058 4.09801 3.375 4.95646 3.375 5.85156C3.375 6.74667 3.73058 7.60511 4.36351 8.23805C4.99645 8.87098 5.85489 9.22656 6.75 9.22656Z" fill="white"/>
<path fill-rule="evenodd" clip-rule="evenodd" d="M15.1875 5.85156C15.3367 5.85156 15.4798 5.91083 15.5852 6.01632C15.6907 6.1218 15.75 6.26488 15.75 6.41406V8.10156H17.4375C17.5867 8.10156 17.7298 8.16083 17.8352 8.26631C17.9407 8.3718 18 8.51488 18 8.66406C18 8.81325 17.9407 8.95632 17.8352 9.06181C17.7298 9.1673 17.5867 9.22656 17.4375 9.22656H15.75V10.9141C15.75 11.0632 15.6907 11.2063 15.5852 11.3118C15.4798 11.4173 15.3367 11.4766 15.1875 11.4766C15.0383 11.4766 14.8952 11.4173 14.7898 11.3118C14.6843 11.2063 14.625 11.0632 14.625 10.9141V9.22656H12.9375C12.7883 9.22656 12.6452 9.1673 12.5398 9.06181C12.4343 8.95632 12.375 8.81325 12.375 8.66406C12.375 8.51488 12.4343 8.3718 12.5398 8.26631C12.6452 8.16083 12.7883 8.10156 12.9375 8.10156H14.625V6.41406C14.625 6.26488 14.6843 6.1218 14.7898 6.01632C14.8952 5.91083 15.0383 5.85156 15.1875 5.85156Z" fill="white"/>
</svg>
