<svg width="18" height="13" viewBox="0 0 18 13" fill="none" xmlns="http://www.w3.org/2000/svg">
<path d="M9.375 6.57578C9.7375 6.17578 10.0157 5.71953 10.2098 5.20703C10.4032 4.69453 10.5 4.16328 10.5 3.61328C10.5 3.06328 10.4032 2.53203 10.2098 2.01953C10.0157 1.50703 9.7375 1.05078 9.375 0.650781C10.125 0.750781 10.75 1.08203 11.25 1.64453C11.75 2.20703 12 2.86328 12 3.61328C12 4.36328 11.75 5.01953 11.25 5.58203C10.75 6.14453 10.125 6.47578 9.375 6.57578ZM13.1437 12.6133C13.2562 12.5258 13.3438 12.4163 13.4062 12.2848C13.4688 12.1538 13.5 12.007 13.5 11.8445V10.3633C13.5 9.91328 13.4 9.48528 13.2 9.07928C13 8.67278 12.7375 8.31328 12.4125 8.00078C13.05 8.22578 13.6407 8.51628 14.1847 8.87228C14.7283 9.22878 15 9.72578 15 10.3633V11.8633C15 12.0758 14.928 12.2538 14.784 12.3973C14.6405 12.5413 14.4625 12.6133 14.25 12.6133H13.1437ZM15.75 7.36328C15.5375 7.36328 15.3595 7.29128 15.216 7.14728C15.072 7.00378 15 6.82578 15 6.61328V5.86328H14.25C14.0375 5.86328 13.8595 5.79128 13.716 5.64728C13.572 5.50378 13.5 5.32578 13.5 5.11328C13.5 4.90078 13.572 4.72253 13.716 4.57853C13.8595 4.43503 14.0375 4.36328 14.25 4.36328H15V3.61328C15 3.40078 15.072 3.22253 15.216 3.07853C15.3595 2.93503 15.5375 2.86328 15.75 2.86328C15.9625 2.86328 16.1405 2.93503 16.284 3.07853C16.428 3.22253 16.5 3.40078 16.5 3.61328V4.36328H17.25C17.4625 4.36328 17.6405 4.43503 17.784 4.57853C17.928 4.72253 18 4.90078 18 5.11328C18 5.32578 17.928 5.50378 17.784 5.64728C17.6405 5.79128 17.4625 5.86328 17.25 5.86328H16.5V6.61328C16.5 6.82578 16.428 7.00378 16.284 7.14728C16.1405 7.29128 15.9625 7.36328 15.75 7.36328ZM6 6.61328C5.175 6.61328 4.46875 6.31953 3.88125 5.73203C3.29375 5.14453 3 4.43828 3 3.61328C3 2.78828 3.29375 2.08203 3.88125 1.49453C4.46875 0.907031 5.175 0.613281 6 0.613281C6.825 0.613281 7.53125 0.907031 8.11875 1.49453C8.70625 2.08203 9 2.78828 9 3.61328C9 4.43828 8.70625 5.14453 8.11875 5.73203C7.53125 6.31953 6.825 6.61328 6 6.61328ZM0.75 12.6133C0.5375 12.6133 0.3595 12.5413 0.216 12.3973C0.072 12.2538 0 12.0758 0 11.8633V10.5133C0 10.0883 0.1095 9.69753 0.3285 9.34103C0.547 8.98503 0.8375 8.71328 1.2 8.52578C1.975 8.13828 2.7625 7.84753 3.5625 7.65353C4.3625 7.46003 5.175 7.36328 6 7.36328C6.825 7.36328 7.6375 7.46003 8.4375 7.65353C9.2375 7.84753 10.025 8.13828 10.8 8.52578C11.1625 8.71328 11.453 8.98503 11.6715 9.34103C11.8905 9.69753 12 10.0883 12 10.5133V11.8633C12 12.0758 11.9283 12.2538 11.7847 12.3973C11.6407 12.5413 11.4625 12.6133 11.25 12.6133H0.75Z" fill="white"/>
</svg>
