<svg width="8" height="9" viewBox="0 0 8 9" fill="none" xmlns="http://www.w3.org/2000/svg">
<mask id="mask0_1076_14996" style="mask-type:alpha" maskUnits="userSpaceOnUse" x="1" y="1" width="7" height="7">
<path fill-rule="evenodd" clip-rule="evenodd" d="M1.05322 1.9573C1.05322 1.83265 1.10038 1.71311 1.18433 1.62496C1.26827 1.53682 1.38213 1.4873 1.50084 1.4873H6.87227C6.99099 1.4873 7.10484 1.53682 7.18878 1.62496C7.27273 1.71311 7.31989 1.83265 7.31989 1.9573C7.31989 2.08196 7.27273 2.2015 7.18878 2.28964C7.10484 2.37779 6.99099 2.4273 6.87227 2.4273H1.50084C1.38213 2.4273 1.26827 2.37779 1.18433 2.28964C1.10038 2.2015 1.05322 2.08196 1.05322 1.9573ZM2.03957 4.3073C2.03957 4.18265 2.08673 4.06311 2.17068 3.97496C2.25462 3.88682 2.36848 3.8373 2.48719 3.8373H5.90769C6.0264 3.8373 6.14026 3.88682 6.2242 3.97496C6.30815 4.06311 6.3553 4.18265 6.3553 4.3073C6.3553 4.43196 6.30815 4.5515 6.2242 4.63964C6.14026 4.72779 6.0264 4.7773 5.90769 4.7773H2.48719C2.36848 4.7773 2.25462 4.72779 2.17068 4.63964C2.08673 4.5515 2.03957 4.43196 2.03957 4.3073ZM3.19004 6.71945C3.19004 6.5948 3.2372 6.47525 3.32115 6.38711C3.40509 6.29897 3.51895 6.24945 3.63766 6.24945H4.75809C4.87681 6.24945 4.99066 6.29897 5.07461 6.38711C5.15855 6.47525 5.20571 6.5948 5.20571 6.71945C5.20571 6.8441 5.15855 6.96365 5.07461 7.05179C4.99066 7.13993 4.87681 7.18945 4.75809 7.18945H3.63766C3.51895 7.18945 3.40509 7.13993 3.32115 7.05179C3.2372 6.96365 3.19004 6.8441 3.19004 6.71945Z" fill="#006FFD"/>
</mask>
<g mask="url(#mask0_1076_14996)">
<rect x="0.428223" y="0.546875" width="7.52" height="7.52" fill="#8F9098"/>
</g>
</svg>
