<svg width="9" height="9" viewBox="0 0 9 9" fill="none" xmlns="http://www.w3.org/2000/svg">
<mask id="mask0_1076_14991" style="mask-type:alpha" maskUnits="userSpaceOnUse" x="0" y="1" width="8" height="7">
<path fill-rule="evenodd" clip-rule="evenodd" d="M2.19388 1.19658C2.34327 1.06077 2.57142 1.06077 2.72081 1.19658L4.09948 2.44992C4.25954 2.59542 4.27133 2.84313 4.12582 3.00319C3.98032 3.16325 3.73261 3.17504 3.57255 3.02954L2.84901 2.37178V7.12639C2.84901 7.34271 2.67366 7.51806 2.45735 7.51806C2.24104 7.51806 2.06568 7.34271 2.06568 7.12639V2.37178L1.34214 3.02954C1.18209 3.17504 0.934378 3.16325 0.788871 3.00319C0.643364 2.84313 0.65516 2.59542 0.815218 2.44992L2.19388 1.19658ZM6.1564 1.09473C6.37271 1.09473 6.54806 1.27008 6.54806 1.48639V6.24101L7.2716 5.58325C7.43166 5.43774 7.67937 5.44954 7.82487 5.6096C7.97038 5.76965 7.95858 6.01736 7.79853 6.16287L6.41986 7.4162C6.27047 7.55201 6.04232 7.55201 5.89293 7.4162L4.51426 6.16287C4.35421 6.01736 4.34241 5.76965 4.48792 5.6096C4.63343 5.44954 4.88113 5.43774 5.04119 5.58325L5.76473 6.24101V1.48639C5.76473 1.27008 5.94008 1.09473 6.1564 1.09473Z" fill="#006FFD"/>
</mask>
<g mask="url(#mask0_1076_14991)">
<rect x="0.54834" y="0.546875" width="7.52" height="7.52" fill="#8F9098"/>
</g>
</svg>
