<svg width="21" height="22" viewBox="0 0 21 22" fill="none" xmlns="http://www.w3.org/2000/svg">
<path d="M10 2.61328C8.075 2.61328 6.5 4.18828 6.5 6.11328C6.5 8.03828 8.075 9.61328 10 9.61328C11.925 9.61328 13.5 8.03828 13.5 6.11328C13.5 4.18828 11.925 2.61328 10 2.61328ZM10 11.3633C6.15 11.3633 3 12.9383 3 14.8633V16.6133H11.3125C11.05 15.9133 10.875 15.2133 10.875 14.4258C10.875 13.3758 11.1375 12.4133 11.6625 11.4508C11.1375 11.4508 10.6125 11.3633 10 11.3633ZM16.125 16.6133C14.9 16.6133 13.9375 15.6508 13.9375 14.4258C13.9375 14.0758 14.025 13.7258 14.2 13.4633L13.2375 12.5008C12.8875 13.0258 12.625 13.7258 12.625 14.4258C12.625 16.3508 14.2 17.9258 16.125 17.9258V19.2383L18.05 17.3133L16.125 15.3008V16.6133ZM16.125 10.9258V9.61328L14.2 11.5383L16.125 13.4633V12.2383C17.35 12.2383 18.3125 13.2008 18.3125 14.4258C18.3125 14.7758 18.225 15.1258 18.05 15.3883L19.0125 16.3508C19.3625 15.8258 19.625 15.1258 19.625 14.4258C19.625 12.5008 18.05 10.9258 16.125 10.9258V10.9258Z" fill="white"/>
</svg>
